<svg style="vertical-align:-2.348ex" xmlns="http://www.w3.org/2000/svg" width="3.44ex" height="6.009ex" viewBox="0 -1618.4 1520.7 2656.2" xmlns:xlink="http://www.w3.org/1999/xlink"><defs><path id="a" d="M114-798q18-26 51-26h2q28 0 56 60t52 164 45 209 42 227q3 21 5 31 72 425 156 788t122 472l10 30q4 12 17 44t27 56 34 49 44 40 51 14q56 0 84-35t32-80q0-25-12-40t-23-19-22-3q-21 0-38 15t-17 41q0 48 53 57l-3 4q-3 3-8 7t-8 6q-15 10-33 10-14 0-26-12t-32-56-39-116-47-203-56-308Q574 293 510-5T410-437t-55-192q-77-233-190-233-40 0-73 31t-37 85q0 35 19 48t38 13q21 0 38-15t17-41q0-48-53-57Z"/></defs><g stroke="currentColor" fill="currentColor" stroke-width="0"><g><use data-c="222B" xlink:href="#a" transform="matrix(1 0 0 -1 0 -1)"/><g><text data-variant="normal" transform="matrix(.707 0 0 .707 1046.4 -1088.1)" font-size="884" font-family="serif">⬚</text></g><g><text data-variant="normal" transform="matrix(.707 0 0 .707 589 896.4)" font-size="884" font-family="serif">⬚</text></g></g></g></svg>