<svg style="vertical-align:-.025ex" xmlns="http://www.w3.org/2000/svg" width=".919ex" height="1ex" viewBox="0 -431 406 442" xmlns:xlink="http://www.w3.org/1999/xlink"><defs><path id="a" d="M227-11q-78 0-132 52T40 174q0 88 47 148 34 45 86 74t114 34q2 1 42 1h38q15-5 15-20 0-26-41-26h-29q-121 0-158-108l-4-12h177q13-9 13-19 0-18-20-27H138v-2q-10-30-10-74 0-66 32-91t71-26q27 0 53 10t42 21 17 11q7 0 11-10t4-19q0-3-1-4-3-4-20-14T289 0t-62-11Z"/></defs><g stroke="currentColor" fill="currentColor" stroke-width="0"><use data-c="1D716" xlink:href="#a" transform="scale(1 -1)"/></g></svg>