<svg style="vertical-align:0" xmlns="http://www.w3.org/2000/svg" width="1.717ex" height="1.545ex" viewBox="0 -683 759 683" xmlns:xlink="http://www.w3.org/1999/xlink"><defs><path id="a" d="M231 637q-27 0-32 1t-5 11q0 27 11 33 1 1 130 1 259 0 273-2 63-10 105-45t43-92q0-64-58-115t-133-69l-10-3q64-9 105-46t42-92q0-73-72-141T453 1q-7-1-211-1Q42 0 39 2q-4 3-4 8 0 7 2 14 5 19 10 21 4 1 15 1h6q27 0 60 3 14 3 19 12 3 4 72 278t69 289q0 7-57 9Zm418-93q0 30-15 56t-49 34q-7 2-92 3h-42q-22 0-35-1h-13q-15-1-19-10-2-4-32-120 0-3-1-6l-31-126h81q81 0 93 2 60 10 107 58t48 110Zm-54-315q0 44-23 73t-60 34q-6 1-83 1-118 0-119-1 0-2-17-73t-35-141l-18-70q0-4 12-4t81-2q89 0 96 1 62 7 114 58t52 124Z"/></defs><g stroke="currentColor" fill="currentColor" stroke-width="0"><use data-c="1D435" xlink:href="#a" transform="scale(1 -1)"/></g></svg>