<svg style="vertical-align:-.05ex" xmlns="http://www.w3.org/2000/svg" width="1.76ex" height="1.645ex" viewBox="0 -705 778 727" xmlns:xlink="http://www.w3.org/1999/xlink"><defs><path id="a" d="M56 340q0 83 30 154t78 116 106 70 118 25q133 0 233-104t101-260q0-81-29-150T617 75 510 4 388-22 267 3 160 74 85 189 56 340Zm554-1q0 89-20 156t-55 103-72 53-79 17q-52 0-95-30t-68-72q-53-81-53-227 0-65 8-104 13-77 52-130t96-77q32-12 64-12 27 0 54 8t59 30 54 57 39 94 16 134Zm-387-76v159h40v-34h251v34h40V263h-40v34H263v-34h-40Z"/></defs><g stroke="currentColor" fill="currentColor" stroke-width="0"><use data-c="398" xlink:href="#a" transform="scale(1 -1)"/></g></svg>