<svg style="vertical-align:0" xmlns="http://www.w3.org/2000/svg" width="1.593ex" height="1.532ex" viewBox="0 -677 704 677" xmlns:xlink="http://www.w3.org/1999/xlink"><defs><path id="a" d="M40 437q-19 0-19 8 0 5 16 56t34 101l17 49q5 18 13 26h558q32 0 38-1t7-9q0-6-17-114t-19-109q0-7-19-7h-12q-3 0-6 5l-2 3q0 6 6 45t6 61q0 35-13 53t-55 25q-5 1-58 2-46 0-58-1t-18-8q-1-1-71-279T298 60q0-12 88-14 32 0 41-1t9-9q0-5-3-14-4-18-9-21l-2-1h-7q-5 0-52 1T228 2Q99 2 64 0H49q-6 6-6 9t2 18q4 13 10 19h39q80 0 95 9 1 1 2 1 5 3 10 20t40 157q17 68 28 111 70 275 70 281 0 5-29 5h-31q-67 0-88-6-45-10-70-41T67 467q-7-22-10-26t-14-4h-3Z"/></defs><g stroke="currentColor" fill="currentColor" stroke-width="0"><use data-c="1D447" xlink:href="#a" transform="scale(1 -1)"/></g></svg>