<svg style="vertical-align:0" xmlns="http://www.w3.org/2000/svg" width="1.76ex" height="1.595ex" viewBox="0 -705 778 705" xmlns:xlink="http://www.w3.org/1999/xlink"><defs><path id="a" d="M55 551q0 53 36 103t103 51q46 0 83-24t57-57 33-68 18-58l4-24 3 14q2 13 8 33t14 45 24 49 35 44 48 33 63 13q36 0 64-16t43-42 23-50 8-46q0-11-3-13t-20-2q-19 0-22 5v3q0 2-1 4 0 28-26 48t-62 20h-6q-44 0-77-34-39-39-51-105t-13-159v-49q0-32 1-47V61q6-6 10-8t26-5 64-2h27V0h-12q-24 3-168 3T221 0h-12v46h61q14 0 25 1t16 1 11 3 6 3 4 3 5 4v148q0 174-4 206-20 201-144 201-35 0-61-19t-27-49q0-8-4-10t-19-2q-15 0-19 2t-4 13Z"/></defs><g stroke="currentColor" fill="currentColor" stroke-width="0"><use data-c="3A5" xlink:href="#a" transform="scale(1 -1)"/></g></svg>