<svg style="vertical-align:0" xmlns="http://www.w3.org/2000/svg" width="1.14ex" height="1.545ex" viewBox="0 -683 504 683" xmlns:xlink="http://www.w3.org/1999/xlink"><defs><path id="a" d="M43 1q-17 0-17 9 0 2 3 14 5 19 10 21 3 1 15 1h6q60 0 76 7 1 0 2 1 5 2 11 23t49 196q12 45 18 71 70 280 70 282-2 4-2 5-10 6-71 6h-20q-9 6-4 25 4 15 6 18t14 3h4q72-2 146-2 122 0 128 2h10q7-7 7-11t-3-17-7-16q-3-2-23-2-31 0-64-3-14-3-19-11-7-14-51-191-11-47-22-91-70-276-70-282 0-7 10-9t52-4h32q6-8 6-9t-3-18q-4-13-10-19h-16q-37 2-137 2H65Q47 2 43 1Z"/></defs><g stroke="currentColor" fill="currentColor" stroke-width="0"><use data-c="1D43C" xlink:href="#a" transform="scale(1 -1)"/></g></svg>