<svg style="vertical-align:0" xmlns="http://www.w3.org/2000/svg" width="1.697ex" height="1.62ex" viewBox="0 -716 750 716" xmlns:xlink="http://www.w3.org/1999/xlink"><defs><path id="a" d="M208 74q0-24 46-28 18 0 18-11 0-1-2-13-3-14-6-18t-13-4h-12q-10 0-34 1t-64 1Q70 2 50 0h-8q-7 7-7 11 2 27 13 35h14q70 3 102 50 6 6 181 305t178 303q7 12 24 12h25q6-9 6-10l28-323q28-323 30-326 5-11 65-11 25 0 25-10 0-2-3-14-3-15-5-18t-14-4h-14q-11 0-39 1t-73 1q-94 0-123-2h-12q-6 6-6 9t2 18q4 13 6 16l4 3h20q54 3 64 17l-12 150H283l-34-58q-41-69-41-81Zm308 186q0 11-12 156t-14 146l-27-43q-16-27-63-107l-90-152 103-1q103 0 103 1Z"/></defs><g stroke="currentColor" fill="currentColor" stroke-width="0"><use data-c="1D434" xlink:href="#a" transform="scale(1 -1)"/></g></svg>