<svg style="vertical-align:0" xmlns="http://www.w3.org/2000/svg" width="1.76ex" height="1.545ex" viewBox="0 -683 778 683" xmlns:xlink="http://www.w3.org/1999/xlink"><defs><path id="a" d="M340 622q-2 1-5 3t-4 4-6 2-11 3-16 1-24 1-35 1h-27v46h12q24-3 165-3t165 3h12v-46h-27q-60 0-75-2t-25-13l-1-215q0-215 1-215 4 1 10 3t25 12 33 25 29 44 21 68q3 21 5 73t11 76q14 43 47 51 7 2 51 2h44l7-6v-25q-8-6-14-6-28-4-37-33t-13-84-14-85q-45-130-193-154l-13-2v-45l1-45q7-7 12-9t25-4 63-2h27V0h-12q-24 3-165 3T224 0h-12v46h61q14 0 25 1t16 1 11 3 6 3 4 3 5 4v90q-214 27-223 255-2 97-48 103-14 0-14 17 0 15 4 17t27 3h34q30 0 41-3t23-15q14-14 20-35 8-21 9-73t13-104 46-86q15-14 31-23t27-13l9-2q1 0 1 215v215Z"/></defs><g stroke="currentColor" fill="currentColor" stroke-width="0"><use data-c="3A8" xlink:href="#a" transform="scale(1 -1)"/></g></svg>