<svg style="vertical-align:-.025ex" xmlns="http://www.w3.org/2000/svg" width="1.294ex" height="1.025ex" viewBox="0 -442 572 453" xmlns:xlink="http://www.w3.org/1999/xlink"><defs><path id="a" d="M21 287q0 8 9 31t25 52 44 50 59 22q46 0 69-25t23-59q0-18-34-112t-34-141q0-43 14-60t42-18 53 17 37 34l11 17q2 4 38 152 30 120 36 140t14 29q17 15 36 15 17 0 25-10t8-19L420 84q-1-5-1-16 0-25 7-33t21-9q22 3 35 31t30 88q2 8 20 8 19 0 19-9-1-5-2-14t-9-32-17-43-25-38-36-25q-8-2-24-2-66 0-91 56-2-1-11-10t-18-15-22-15-29-12-34-5q-44 0-78 18-52 31-52 106 0 57 35 149t35 117v14q0 3-4 7t-11 4h-4q-23 0-42-19t-30-41-17-42-8-22q-2-2-16-2H27q-6 6-6 9Z"/></defs><g stroke="currentColor" fill="currentColor" stroke-width="0"><use data-c="1D462" xlink:href="#a" transform="scale(1 -1)"/></g></svg>