<svg style="vertical-align:-.048ex" xmlns="http://www.w3.org/2000/svg" width="1.717ex" height="1.593ex" viewBox="0 -683 759 704" xmlns:xlink="http://www.w3.org/1999/xlink"><defs><path id="a" d="M230 637q-27 0-32 1t-5 11q0 27 11 33 2 1 174 1 172-1 186-3 56-8 94-28t54-46 21-43 6-34q0-45-29-84t-67-60-67-34-38-13l7-5q67-38 67-110 0-11-5-61t-5-82v-9q0-18 1-28t11-18 26-9q28 0 46 22t26 47q5 14 8 17t15 3q20 0 20-12 0-18-24-57-38-57-90-57h-9q-61 0-101 25t-44 78q0 27 15 84t15 73q0 51-43 74-15 7-25 8t-71 2h-69l-32-130Q244 61 244 59q0-4 1-5t7-4 17-2 33-2h31q6-8 6-9t-3-18q-4-13-10-19h-15q-36 2-131 2H71Q54 2 50 1q-17 0-17 9 0 2 3 14 5 19 10 21 4 1 15 1h6q27 0 60 3 14 3 19 12 3 4 72 278t69 289q0 7-57 9Zm400-83q0 32-21 54t-86 28h-23q-21 0-38 1h-22q-47 0-54-10-1-3-34-133t-33-133q0-1 69-1 78 1 104 7 64 10 100 59 16 23 27 60t11 68Z"/></defs><g stroke="currentColor" fill="currentColor" stroke-width="0"><use data-c="1D445" xlink:href="#a" transform="scale(1 -1)"/></g></svg>