<svg style="vertical-align:0" xmlns="http://www.w3.org/2000/svg" width="1.873ex" height="1.545ex" viewBox="0 -683 828 683" xmlns:xlink="http://www.w3.org/1999/xlink"><defs><path id="a" d="M287 628q0 7-57 9-23 0-30 1t-7 9q0 8 4 20t7 15q2 1 199 1 167-1 187-1t40-6q72-17 122-79t51-166q0-156-107-280T444 3l-14-2-194-1H72Q48 0 41 2t-8 9q0 2 3 14 4 16 8 18t23 3q27 0 60 3 14 3 19 12 3 4 72 278t69 289Zm416-159q0 38-11 68t-26 47-37 29-39 16-35 7h-43q-17 0-33 1h-43q-44 0-50-10-2-4-73-288T242 52q0-4 11-4t77-1h19q14 0 24-1 126 0 208 82 36 36 59 84t43 127 20 130Z"/></defs><g stroke="currentColor" fill="currentColor" stroke-width="0"><use data-c="1D437" xlink:href="#a" transform="scale(1 -1)"/></g></svg>