<svg style="vertical-align:-.05ex" xmlns="http://www.w3.org/2000/svg" width="1.735ex" height="1.595ex" viewBox="0 -683 767 705" xmlns:xlink="http://www.w3.org/1999/xlink"><defs><path id="a" d="M107 637q-34 0-36 4-1 2-1 8 0 24 11 33 2 1 17 1 41-2 136-2h63q29 0 45 1t20 0q16 0 16-10 0-2-2-14-5-17-10-20h-14q-4 0-9-1t-9 0q-39-1-50-3t-18-11q-1-2-28-105t-54-216-30-133q-2-14-2-29 0-54 31-85t86-31q67 0 134 45t98 136l51 201q47 192 47 200 0 27-64 31-24 0-24 11 0 2 2 12 4 16 6 19t10 4q3 0 32-1t84-2q51 0 78 1t29 1q15 0 15-10 0-22-8-30-3-5-22-5-71-4-89-40-2-5-50-193-41-169-50-199-33-100-115-163T263-22q-92 0-147 56T60 167v16q0 18 55 238 49 201 49 207 0 7-57 9Z"/></defs><g stroke="currentColor" fill="currentColor" stroke-width="0"><use data-c="1D448" xlink:href="#a" transform="scale(1 -1)"/></g></svg>