<svg style="vertical-align:-.05ex" xmlns="http://www.w3.org/2000/svg" width="1.74ex" height="1.595ex" viewBox="0 -683 769 705" xmlns:xlink="http://www.w3.org/1999/xlink"><defs><path id="a" d="M52 648q0 22 13 35h11q42-3 105-3 118 0 139 3h10q6-6 6-9t-2-18q-5-15-9-19h-21q-22-2-30-2-29-5-32-15 0-2 29-251t30-251l73 117q73 117 146 236t75 123q4 7 4 15 0 24-44 28-18 0-18 11 0 1 2 13 3 14 6 18t13 4h12q10 0 34-1t64-1q69 0 87 2h7q7-7 7-11 0-17-9-32-3-3-17-3-13-1-24-2t-21-5-16-7-12-8-10-7-8-9-7-7L452 282Q272-9 266-16q-3-2-7-5l-18-1h-7q-18 0-18 7-3 6-39 320-38 318-39 321-5 11-62 11H59q-7 5-7 11Z"/></defs><g stroke="currentColor" fill="currentColor" stroke-width="0"><use data-c="1D449" xlink:href="#a" transform="scale(1 -1)"/></g></svg>