<svg style="vertical-align:-.452ex" xmlns="http://www.w3.org/2000/svg" width="2.552ex" height="2.149ex" viewBox="0 -750 1128 950" xmlns:xlink="http://www.w3.org/1999/xlink"><defs><path id="b" d="M78 661q0 21 18 38t42 17 42-16 19-39q0-7-20-229t-21-226q-2-8-19-8-18 0-20 8-1 3-21 225T78 661Zm1-600q0 28 18 44t44 16q23-2 40-17t17-43q0-30-17-45T139 1q-25 0-42 15T79 61Z"/></defs><g stroke="currentColor" fill="currentColor" stroke-width="0"><g><text data-variant="normal" font-size="884" font-family="serif">⬚</text></g><use data-c="A0" xlink:href="#a" transform="matrix(1 0 0 -1 600 0)"/><use data-c="21" xlink:href="#b" transform="matrix(1 0 0 -1 850 0)"/></g></svg>