<svg style="vertical-align:-.475ex" xmlns="http://www.w3.org/2000/svg" width="4.231ex" height="2.851ex" viewBox="0 -1050.3 1870 1260" xmlns:xlink="http://www.w3.org/1999/xlink"><defs><path id="b" d="M263 249q1 0 52-119t102-238 53-120l255 530q256 535 257 537 7 11 19 11 7 0 12-6t7-12v-6L741 243Q645 43 540-176q-61-127-71-148t-16-24q-4-2-17-2l-12 1L315-96Q206 156 205 156l-34-26q-33-26-34-26l-26 26 152 119Z"/></defs><g stroke="currentColor" fill="currentColor" stroke-width="0"><g><g><text data-variant="normal" transform="translate(1020)" font-size="884" font-family="serif">⬚</text></g><use data-c="A0" xlink:href="#a" transform="matrix(1 0 0 -1 1620 0)"/><use data-c="221A" xlink:href="#b" transform="matrix(1 0 0 -1 0 -140.3)"/><path stroke="none" d="M1020-930.3h850v-60h-850z"/></g></g></svg>