<svg style="vertical-align:-.025ex" xmlns="http://www.w3.org/2000/svg" width="1.054ex" height="1.025ex" viewBox="0 -442 466 453" xmlns:xlink="http://www.w3.org/1999/xlink"><defs><path id="a" d="M39 168q0 57 19 104t49 78 67 52 70 31 63 9h3q45 0 78-22t33-65q0-90-111-118-49-13-134-14-37 0-38-2 0-2-6-35t-7-58q0-47 21-74t63-28 93 19 92 66q9 10 12 10 4 0 13-9t10-14-9-16-30-27-46-31-63-25-76-10q-79 0-122 53T39 168Zm334 185q-6 52-68 52-33 0-61-14t-45-34-29-41-16-36-5-19q0-1 20-1 113 0 158 24t46 69Z"/></defs><g stroke="currentColor" fill="currentColor" stroke-width="0"><use data-c="1D452" xlink:href="#a" transform="scale(1 -1)"/></g></svg>