<svg style="vertical-align:-.05ex" xmlns="http://www.w3.org/2000/svg" width="1.459ex" height="1.645ex" viewBox="0 -705 645 727" xmlns:xlink="http://www.w3.org/1999/xlink"><defs><path id="a" d="M308 24q59 0 108 52t50 121q0 63-52 87-106 27-136 37t-42 20q-60 42-60 121 0 61 32 111t65 75q29 25 70 40t64 16h18q96 0 139-64 1 0 13 13t26 29 20 22h4q3 0 5 1 13 0 13-7t-28-121-32-118-16-3q-20 0-20 9 0 6 1 10 0 3 1 19t2 26q0 34-9 59t-18 37-25 25q-36 21-82 21-57 0-106-46t-50-106q0-30 15-52t41-31q4-2 70-19t67-18q34-11 66-48t32-100q0-26-8-56-5-22-18-49t-36-59-66-60-94-38q-12-2-34-2-99 0-154 55l-10 11-28-31Q83-14 78-18t-13-4q-13 0-13 8 0 3 58 235 2 6 20 6h13q6-6 6-11 0-2-1-9t-4-21-2-33q2-39 18-66t43-40 52-18 53-5Z"/></defs><g stroke="currentColor" fill="currentColor" stroke-width="0"><use data-c="1D446" xlink:href="#a" transform="scale(1 -1)"/></g></svg>