<svg style="vertical-align:-.025ex" xmlns="http://www.w3.org/2000/svg" width="1.052ex" height="1.025ex" viewBox="0 -442 465 453" xmlns:xlink="http://www.w3.org/1999/xlink"><defs><path id="a" d="M347 338q-10 0-53 11t-63 11q-20 0-34-4t-23-10-12-11-7-11l-2-4q-3-3-15-3-21 0-21 8 0 5 3 14 13 39 43 67t66 34q12 2 17 2 25 0 45-17t38-33 38-17q22 0 44 33t23 33q1 1 15 1h13q6-6 6-8 0-4-5-14t-14-21-17-22-14-19l-7-9q-43-51-136-135T160 106l-12-12 15-1q22 0 64-11t63-11q38 0 70 19t42 50q4 9 7 11t15 2q19 0 19-10 0-5-1-9-17-62-66-103t-98-42q-26 0-46 17t-39 34-38 17q-44 0-79-60-6-8-17-8H41q-6 6-6 9 0 15 58 86 39 45 132 130t115 108q12 16 7 16Z"/></defs><g stroke="currentColor" fill="currentColor" stroke-width="0"><use data-c="1D467" xlink:href="#a" transform="scale(1 -1)"/></g></svg>