<svg style="vertical-align:-.023ex" xmlns="http://www.w3.org/2000/svg" width="1.005ex" height="1.645ex" viewBox="0 -717 444 727" xmlns:xlink="http://www.w3.org/1999/xlink"><defs><path id="a" d="M195 609q0 47 32 77t75 31q17-1 49-8t56-12 26-7q18-8 18-28 0-18-13-34t-35-16q-21 0-55 29t-60 30-39-14-14-29q0-44 99-165 67-84 67-171 0-123-61-212T205-10h-7q-71 0-115 46T36 153q0 133 115 229 40 31 101 52 0 1-7 15t-15 32-16 40-13 45-6 43Zm-83-479q0-47 24-75t68-28q29 0 52 24t35 60 18 67 7 54q0 35-7 66t-14 46-26 56l-10-4q-44-15-76-54t-46-86-19-77-6-49Z"/></defs><g stroke="currentColor" fill="currentColor" stroke-width="0"><use data-c="1D6FF" xlink:href="#a" transform="scale(1 -1)"/></g></svg>