<svg style="vertical-align:0" xmlns="http://www.w3.org/2000/svg" width="1.697ex" height="1.538ex" viewBox="0 -680 750 680" xmlns:xlink="http://www.w3.org/1999/xlink"><defs><path id="a" d="M128 619q-7 7-11 9t-16 3-43 3H25v46h699v-46h-33q-40-1-51-3t-18-12V61q6-10 17-12t52-3h33V0h-11q-21 3-144 3-135 0-144-3h-11v46h33q42 1 51 3t19 12v573H232V348l1-287q6-10 17-12t52-3h33V0h-11q-21 3-144 3Q45 3 36 0H25v46h33q42 1 51 3t19 12v558Z"/></defs><g stroke="currentColor" fill="currentColor" stroke-width="0"><use data-c="3A0" xlink:href="#a" transform="scale(1 -1)"/></g></svg>