<svg style="vertical-align:-.493ex" xmlns="http://www.w3.org/2000/svg" width="1.48ex" height="1.493ex" viewBox="0 -442 654 660" xmlns:xlink="http://www.w3.org/1999/xlink"><defs><path id="a" d="M92 210q0-34 14-61t36-41 43-23 35-13l15-2 2 1 13 41q18 58 33 99t39 88 48 76 59 48 73 19q45 0 80-32t36-108q0-78-43-150T457 35 299-10q-26 0-26-2l-7-36q-6-35-14-77t-11-54q-5-24-26-33-11-6-25-6-31 3-31 33 0 10 55 183l-5 2q-5 2-14 5t-22 9-26 14-27 18-26 25-23 32-15 39-6 48q0 48 26 121t73 120h13q21 0 21-8 0-6-8-14-41-48-61-109t-22-90Zm482 68q0 42-24 66t-64 25q-49 0-92-40t-71-111q-14-34-28-109l-9-45q18-2 20-2 117 0 192 69t76 147Z"/></defs><g stroke="currentColor" fill="currentColor" stroke-width="0"><use data-c="1D711" xlink:href="#a" transform="scale(1 -1)"/></g></svg>