<svg style="vertical-align:-1.577ex" xmlns="http://www.w3.org/2000/svg" width="3.529ex" height="4.803ex" viewBox="0 -1426 1560 2123" xmlns:xlink="http://www.w3.org/1999/xlink"><defs><path id="a" d="M366 683q1 0 72 5t73 6q12 0 12-8 0-7-73-302T375 83t-1-15q0-42 28-42 9 1 20 9 21 20 41 96 6 20 10 21 2 1 10 1h8q15 0 15-8 0-5-3-16-13-50-30-81T445 8 417-8q-8-2-24-2-34 0-57 15t-30 31l-6 15q-1 1-4-1l-4-4q-59-56-120-56-55 0-97 40T33 157q0 48 20 98t48 86q47 57 94 79t85 22q56 0 84-42 5-6 5-4 1 4 27 109t28 111q0 13-7 16t-39 5h-21q-6 6-6 8t2 19q5 19 13 19Zm-14-357q-23 79-75 79-35 0-67-31t-50-81q-29-79-41-164v-11q0-8-1-12 0-45 18-62t43-18q54 0 111 72l8 11 54 217Z"/><path id="b" d="M52 289q7 42 54 97t116 56q35 0 64-18t43-45q42 63 101 63 37 0 64-22t28-59q0-29-14-47t-27-22-23-4q-19 0-31 11t-12 29q0 46 50 63-11 13-40 13-13 0-19-2-38-16-56-66-60-221-60-258 0-28 16-40t35-12q37 0 73 33t49 81q3 10 6 11t16 2h4q15 0 15-8 0-1-2-11-16-57-62-101T333-11q-70 0-106 63-41-62-94-62h-6q-49 0-70 26T35 71q0 32 19 52t45 20q43 0 43-42 0-20-12-35t-23-20-13-5l-3-1q0-1 6-4t16-7 19-3q36 0 62 45 9 16 23 68t28 108 16 66q5 27 5 39 0 28-15 40t-34 12q-40 0-75-32t-49-82q-2-9-5-10t-16-2H58q-6 6-6 11Z"/></defs><g stroke="currentColor" fill="currentColor" stroke-width="0"><g><g><use data-c="1D451" xlink:href="#a" transform="matrix(1 0 0 -1 220 -676)"/><g><text data-variant="normal" transform="translate(740 -676)" font-size="884" font-family="serif">⬚</text></g></g><g><use data-c="1D451" xlink:href="#a" transform="matrix(1 0 0 -1 234 686)"/><use data-c="1D465" xlink:href="#b" transform="matrix(1 0 0 -1 754 686)"/></g><path stroke="none" d="M120-220h1320v-60H120z"/></g></g></svg>