<svg style="vertical-align:-.566ex" xmlns="http://www.w3.org/2000/svg" width=".88ex" height="2.262ex" viewBox="0 -750 389 1000" xmlns:xlink="http://www.w3.org/1999/xlink"><defs><path id="a" d="m60 749 4 1h22l28-24q94-85 137-212t43-264q0-68-10-131T261 12t-37-88-38-67-41-51-32-33-23-19l-4-4H63q-3 0-5 3t-3 9q1 1 11 13Q221-64 221 250T66 725q-10 12-11 13 0 8 5 11Z"/></defs><g stroke="currentColor" fill="currentColor" stroke-width="0"><use data-c="29" xlink:href="#a" transform="scale(1 -1)"/></g></svg>