<svg style="vertical-align:-.452ex" xmlns="http://www.w3.org/2000/svg" width="2.628ex" height="2.452ex" viewBox="0 -883.9 1161.6 1083.9" xmlns:xlink="http://www.w3.org/1999/xlink"><defs><path id="b" d="M109 429q-27 0-43 18t-16 44q0 71 53 123t132 52q91 0 152-56t62-145q0-43-20-82t-48-68-80-74q-36-31-100-92l-59-56 76-1q157 0 167 5 7 2 24 89v3h40v-3q-1-3-13-91T421 3V0H50v31q0 7 6 15t30 35q29 32 50 56 9 10 34 37t34 37 29 33 28 34 23 30 21 32 15 29 13 32 7 30 3 33q0 63-34 109t-97 46q-33 0-58-17t-35-33-10-19q0-1 5-1 18 0 37-14t19-46q0-25-16-42t-45-18Z"/></defs><g stroke="currentColor" fill="currentColor" stroke-width="0"><g><text data-variant="normal" font-size="884" font-family="serif">⬚</text></g><g><g><g><use data-c="A0" xlink:href="#a" transform="matrix(.5 0 0 -.5 600 0)"/></g></g><use data-c="32" xlink:href="#b" transform="matrix(.707 0 0 -.707 758 -413)"/></g></g></svg>