<svg style="vertical-align:-1.018ex" xmlns="http://www.w3.org/2000/svg" width="3.267ex" height="3.167ex" viewBox="0 -950 1444 1400" xmlns:xlink="http://www.w3.org/1999/xlink"><defs><path id="a" d="M60 948q3 2 605 2h602l58-135q59-138 63-146h-40l-7 14q-21 41-56 78-50 48-111 77t-141 43-151 17-183 4H251l8-11q463-633 465-639 1-2 0-6-3-3-264-302L196-356q0-1 211-1h141q89 0 128-1 136 0 220 5t167 21 141 49 103 87q21 26 41 72h40q0-1-7-21t-25-65-31-84l-58-155-601-1q-602 0-605 2-6 2-6 9 0 2 2 6l533 610q0 1-33 45T452 366 322 544L56 909l-1 15q0 21 5 24Z"/></defs><g stroke="currentColor" fill="currentColor" stroke-width="0"><use data-c="2211" xlink:href="#a" transform="scale(1 -1)"/></g></svg>