<svg style="vertical-align:-.566ex" xmlns="http://www.w3.org/2000/svg" width=".88ex" height="2.262ex" viewBox="0 -750 389 1000" xmlns:xlink="http://www.w3.org/1999/xlink"><defs><path id="a" d="M94 250q0 69 10 131t23 107 37 88 38 67 42 52 33 34 25 21h17q14 0 14-9 0-3-17-21t-41-53-49-86-42-138-17-193 17-192 41-139 49-86 42-53 17-21q0-9-15-9h-16l-28 24q-94 85-137 212T94 250Z"/></defs><g stroke="currentColor" fill="currentColor" stroke-width="0"><use data-c="28" xlink:href="#a" transform="scale(1 -1)"/></g></svg>