<svg style="vertical-align:-.566ex" xmlns="http://www.w3.org/2000/svg" width="1.131ex" height="2.262ex" viewBox="0 -750 500 1000" xmlns:xlink="http://www.w3.org/1999/xlink"><defs><path id="a" d="M164 157q0-24-16-40t-39-16h-7q46-79 122-79 70 0 102 60 19 33 19 128 0 103-27 139-26 33-58 33h-6q-78 0-118-68-4-7-7-8t-15-2q-17 0-19 6-2 4-2 175v129q0 50 5 50 2 2 4 2 1 0 21-8t55-16 75-8q71 0 136 28 8 4 13 4 8 0 8-18v-13q-82-97-205-97-31 0-56 6l-10 2V374q19 14 30 22t36 16 51 8q81 0 137-65t56-154q0-92-64-157T229-22q-81 0-130 54T50 154q0 24 11 38t23 18 23 4q25 0 41-17t16-40Z"/></defs><g stroke="currentColor" fill="currentColor" stroke-width="0"><use data-c="35" xlink:href="#a" transform="scale(1 -1)"/></g></svg>