<svg style="vertical-align:-.566ex" xmlns="http://www.w3.org/2000/svg" width="1.131ex" height="2.262ex" viewBox="0 -750 500 1000" xmlns:xlink="http://www.w3.org/1999/xlink"><defs><path id="a" d="M42 313q0 163 81 258t180 95q69 0 99-36t30-80q0-25-14-40t-39-15q-23 0-38 14t-15 39q0 44 47 53-22 22-62 25-71 0-117-60-47-66-47-202l1-4q5 6 8 13 41 60 107 60h4q46 0 81-19 24-14 48-40t39-57q21-49 21-107v-18q0-23-5-43-11-59-64-115T253-22q-28 0-54 8t-56 30-51 59-36 97-14 141Zm215 84q-30 0-52-17t-34-45-17-57-6-62q0-83 12-119t38-58q24-18 53-18 51 0 78 38 13 18 18 45t5 105q0 80-5 107t-18 45q-27 36-72 36Z"/></defs><g stroke="currentColor" fill="currentColor" stroke-width="0"><use data-c="36" xlink:href="#a" transform="scale(1 -1)"/></g></svg>