<svg style="vertical-align:-.566ex" xmlns="http://www.w3.org/2000/svg" width=".674ex" height="2.262ex" viewBox="0 -750 298 1000" xmlns:xlink="http://www.w3.org/1999/xlink"><defs><path id="a" d="M117 59q0-33 25-33 37 0 63 105 6 20 10 21 2 1 10 1h16q3 0 5-2t2-7q-1-6-3-16t-11-38-20-47-31-37-46-17q-36 0-67 22T38 85q0 12 1 17l65 258q63 255 63 263 0 3-1 5t-4 4-5 2-8 1-8 1-9 1-10 0h-13q-3 0-8 1t-6 3-1 6q0 2 2 14 5 19 11 21t72 6q15 1 34 2t30 3 11 1q12 0 12-8 0-11-73-300T118 83v-8q0-6-1-10v-6Z"/></defs><g stroke="currentColor" fill="currentColor" stroke-width="0"><use data-c="1D459" xlink:href="#a" transform="scale(1 -1)"/></g></svg>