<svg style="vertical-align:-.566ex" xmlns="http://www.w3.org/2000/svg" width="1.726ex" height="2.262ex" viewBox="0 -750 763 1000" xmlns:xlink="http://www.w3.org/1999/xlink"><defs><path id="a" d="M740 435q0-115-64-222T511 42 304-22q-97 0-166 57T51 201q-1 8-1 43 0 102 48 194t129 163q124 103 249 103 38 0 48-1 97-14 156-86t60-182Zm-103 41q0 89-46 139t-115 50q-80 0-154-60-80-63-122-177t-43-212q0-90 43-143t114-54q90 0 171 79t123 215q29 95 29 163Z"/></defs><g stroke="currentColor" fill="currentColor" stroke-width="0"><use data-c="1D442" xlink:href="#a" transform="scale(1 -1)"/></g></svg>