<svg style="vertical-align:-.566ex" xmlns="http://www.w3.org/2000/svg" width=".98ex" height="2.262ex" viewBox="0 -750 433 1000" xmlns:xlink="http://www.w3.org/1999/xlink"><defs><path id="a" d="M34 159q0 109 86 196t186 87q56 0 88-24t33-63q0-29-19-49t-48-21q-19 0-30 10t-11 30 11 34 22 21 14 6h1q0 2-6 6t-21 8-34 4q-30 0-57-14-21-9-43-31-44-44-64-124t-21-116q0-46 26-69 22-24 58-24h4q112 0 185 85 9 10 12 10 4 0 13-9t10-14-9-15-29-28-45-30-64-25-80-11q-75 0-121 48T34 159Z"/></defs><g stroke="currentColor" fill="currentColor" stroke-width="0"><use data-c="1D450" xlink:href="#a" transform="scale(1 -1)"/></g></svg>