<svg style="vertical-align:-.566ex" xmlns="http://www.w3.org/2000/svg" width="1.432ex" height="2.262ex" viewBox="0 -750 633 1000" xmlns:xlink="http://www.w3.org/1999/xlink"><defs><path id="a" d="M447 625q0 12-93 12h-25q-6 5-6 8t2 19q4 13 10 19h17q41-2 146-2h70q27 0 37 1t14 0q14 0 14-10 0-2-3-14-4-16-7-18t-19-3q-52 0-59-14-4-13-62-247-63-248-64-249-22-63-86-106T195-22q-58 0-98 30T57 88q0 42 23 64t52 22q45 0 50-44 0-32-18-50t-41-24q-8-2-8-3t7-9q26-29 75-29 38 0 74 32t53 83q4 12 63 250t60 245Z"/></defs><g stroke="currentColor" fill="currentColor" stroke-width="0"><use data-c="1D43D" xlink:href="#a" transform="scale(1 -1)"/></g></svg>