<svg style="vertical-align:-.566ex" xmlns="http://www.w3.org/2000/svg" width="1.292ex" height="2.262ex" viewBox="0 -750 571 1000" xmlns:xlink="http://www.w3.org/1999/xlink"><defs><path id="a" d="M184-11q-68 0-110 45T31 147q0 100 73 186t170 97q1 1 140 1h138q1-1 3-2t4-2 3-2 3-3 2-2 2-4 1-4 1-5 1-6q0-44-65-44h-17q-10 0-14 1h-60l5-10q18-38 18-85 0-110-80-192T184-11Zm177 289q0 80-85 80-124 0-161-174-1-4-1-6-8-37-8-61 0-50 25-70t57-21q54 0 99 47 29 30 47 80t22 80 5 45Z"/></defs><g stroke="currentColor" fill="currentColor" stroke-width="0"><use data-c="1D70E" xlink:href="#a" transform="scale(1 -1)"/></g></svg>