<svg style="vertical-align:-.566ex" xmlns="http://www.w3.org/2000/svg" width="1.407ex" height="2.262ex" viewBox="0 -750 622 1000" xmlns:xlink="http://www.w3.org/1999/xlink"><defs><path id="a" d="M495 384q0 22 19 40t41 19q19 0 34-18t15-61q0-30-12-86t-37-123-72-117-106-49q-80 0-110 77-1 2-7-5-59-72-135-72Q15-11 15 139q0 91 41 186t67 109q12 7 24 2 13-7 13-18 0-12-20-39t-46-73-32-98q-1-6-1-21 0-63 24-87t58-24q58 0 102 53l8 8v19q5 141 64 141 31 0 31-36 0-18-10-48t-20-55l-10-23q1-2 2-6t8-14 16-18 24-14 35-7q63 0 108 72t45 126q0 31-13 51t-25 32-13 27Z"/></defs><g stroke="currentColor" fill="currentColor" stroke-width="0"><use data-c="1D714" xlink:href="#a" transform="scale(1 -1)"/></g></svg>