<svg style="vertical-align:0" xmlns="http://www.w3.org/2000/svg" width="1.509ex" height="1.532ex" viewBox="0 -677 667 677" xmlns:xlink="http://www.w3.org/1999/xlink"><defs><path id="a" d="m47 509 8 167q0 1 278 1t278-1l8-167q0-1-20-1t-20 2q0 19-4 47t-11 32q-14 5-231 5t-231-5q-7-3-11-31t-4-48q0-2-20-2t-20 1Zm92-249v185h40v-51h308v51h40V260h-40v51H179v-51h-40ZM50 0l-8 180h20q20 0 20-2 0-45 7-73 3-12 6-15t13-4q29-3 225-3 197 0 225 3 10 1 13 4t6 15q7 28 7 73 0 2 20 2h20L616 0H50Z"/></defs><g stroke="currentColor" fill="currentColor" stroke-width="0"><use data-c="39E" xlink:href="#a" transform="scale(1 -1)"/></g></svg>