<svg style="vertical-align:0" xmlns="http://www.w3.org/2000/svg" width="1.633ex" height="1.545ex" viewBox="0 -683 722 683" xmlns:xlink="http://www.w3.org/1999/xlink"><defs><path id="a" d="M312 622q-2 1-5 3t-4 4-6 2-11 3-16 1-24 1-35 1h-27v46h12q24-3 165-3t165 3h12v-46h-27q-43 0-64-2t-25-4-11-9v-89l14-2q100-12 170-65t70-124q0-41-23-75t-59-58-77-37-81-20l-14-2V61q6-6 10-8t26-5 64-2h27V0h-12q-24 3-165 3T196 0h-12v46h61q14 0 25 1t16 1 11 3 6 3 4 3 5 4v89h-2q-1 1-21 3t-57 13-72 29q-11 6-24 15t-33 28-34 46-13 58q0 72 72 125t166 63q15 2 16 3h2v89ZM170 342q0-135 137-154h5v307h-3q-8 0-27-4t-51-22-45-46q-16-34-16-81Zm245-154q72 11 104 48t32 106q0 42-12 72t-32 45-37 22-36 10-19 4h-5V188h5Z"/></defs><g stroke="currentColor" fill="currentColor" stroke-width="0"><use data-c="3A6" xlink:href="#a" transform="scale(1 -1)"/></g></svg>