<svg style="vertical-align:-.462ex" xmlns="http://www.w3.org/2000/svg" width="1.066ex" height="2.054ex" viewBox="0 -704 471 908" xmlns:xlink="http://www.w3.org/1999/xlink"><defs><path id="a" d="M296 643q2 61 28 61 18 0 18-17 0-5-3-23t-3-31q0-10 1-15t1-7q1 1 3 1 2 2 13 4t20 2l10 1h10q77 0 77-33-4-38-85-40h-14q-34 0-52 18l-9-6q-76-52-136-160t-61-208q0-19 2-35t9-28 12-23 16-18 18-14 21-11 21-8 22-7 21-7l66-23q67-26 67-96 0-39-25-74t-64-48q-8-2-26-2-27 0-49 8-15 4-32 14t-21 15q-5 8 1 19 7 9 18 9 4 0 30-14t62-15q15 2 27 16t12 35q0 26-20 42t-52 24-67 22-67 33-51 58-21 98q0 127 77 250t172 180l9 5q-6 18-6 48Z"/></defs><g stroke="currentColor" fill="currentColor" stroke-width="0"><use data-c="1D701" xlink:href="#a" transform="scale(1 -1)"/></g></svg>