<svg style="vertical-align:0" xmlns="http://www.w3.org/2000/svg" width="1.131ex" height="1.507ex" viewBox="0 -666 500 666" xmlns:xlink="http://www.w3.org/1999/xlink"><defs><path id="a" d="m213 578-13-5q-14-5-40-10t-58-7H83v46h19q47 2 87 15t56 24 28 22q2 3 12 3 9 0 17-6V361l1-300q7-7 12-9t24-4 62-2h26V0h-11q-21 3-159 3-136 0-157-3H88v46h64q16 0 25 1t16 3 8 2 6 5 6 4v517Z"/></defs><g stroke="currentColor" fill="currentColor" stroke-width="0"><use data-c="31" xlink:href="#a" transform="scale(1 -1)"/></g></svg>