<svg style="vertical-align:-.452ex" xmlns="http://www.w3.org/2000/svg" width="2.628ex" height="2.451ex" viewBox="0 -883.2 1161.6 1083.2" xmlns:xlink="http://www.w3.org/1999/xlink"><defs><path id="b" d="M127 463q-27 0-42 17t-16 44q0 55 48 98t116 43q35 0 44-1 74-12 113-53t40-89q0-52-34-101t-94-71l-3-2q0-1 9-3t29-9 38-21q82-53 82-140 0-79-62-138T238-22q-80 0-138 43T42 130q0 28 18 45t45 18q28 0 46-18t18-45q0-11-3-20t-7-16-11-12-12-8-10-4-8-3l-4-1q51-45 124-45 55 0 83 53 17 33 17 101v20q0 95-64 127-15 6-61 7l-42 1-3 2q-2 3-2 16 0 18 8 18 28 0 58 5 34 5 62 42t28 112v8q0 57-35 79-22 14-47 14-32 0-59-11t-38-23-11-12h3q3-1 8-2t10-5 12-7 10-11 8-15 3-20q0-22-14-39t-45-18Z"/></defs><g stroke="currentColor" fill="currentColor" stroke-width="0"><g><text data-variant="normal" font-size="884" font-family="serif">⬚</text></g><g><g><g><use data-c="A0" xlink:href="#a" transform="matrix(.5 0 0 -.5 600 0)"/></g></g><use data-c="33" xlink:href="#b" transform="matrix(.707 0 0 -.707 758 -413)"/></g></g></svg>