<svg style="vertical-align:-.566ex" xmlns="http://www.w3.org/2000/svg" width="3.393ex" height="2.262ex" viewBox="0 -750 1499.7 1000" xmlns:xlink="http://www.w3.org/1999/xlink"><defs><path id="a" d="M370 305h-21l-36 15-16 38q0 23 15 38 5 5 5 6t-10 2q-26 4-49 4-49 0-80-32-47-47-47-157 0-82 31-129 41-61 110-61 41 0 66 26t36 62q2 8 5 10t16 2h14q6-6 6-9 0-4-4-16t-16-33-29-38-48-31-69-13q-86 0-150 64T34 214q0 104 65 169t151 65 120-27 34-64q0-23-17-37Z"/><path id="b" d="M28 214q0 95 65 164t157 70q90 0 155-68t66-165q0-95-64-160T250-10q-97 0-159 67T28 214ZM250 30q122 0 122 163v57q0 22-1 38t-7 38-16 36-31 28-49 20q-5 1-16 1-30 0-57-12-43-22-56-61t-13-92v-20q0-96 19-135 32-61 105-61Z"/><path id="c" d="M27 422q53 4 82 56t32 122v15h40V431h135v-46H181V241q1-125 1-141t7-32q14-39 49-39 44 0 54 71 1 8 1 46v35h40v-47q0-77-42-117-27-27-70-27-34 0-59 12t-38 31-19 35-7 32q-1 7-1 148v137H18v37h9Z"/></defs><g stroke="currentColor" fill="currentColor" stroke-width="0"><g transform="scale(1 -1)"><use data-c="63" xlink:href="#a"/><use data-c="6F" xlink:href="#b" transform="translate(444)"/><use data-c="74" xlink:href="#c" transform="translate(944)"/></g><use data-c="2061" xlink:href="#d" transform="matrix(1 0 0 -1 1333 0)"/></g></svg>