<svg style="vertical-align:-.566ex" xmlns="http://www.w3.org/2000/svg" width="1.76ex" height="2.262ex" viewBox="0 -750 778 1000" xmlns:xlink="http://www.w3.org/1999/xlink"><defs><path id="a" d="M318 466q0 34 21 52t47 19q32 0 52-20t20-51q0-28-18-49t-52-21q-33 0-51 21t-19 49ZM56 237v13l14 20h636q15-8 15-20t-15-20H70q-14 7-14 20ZM318 34q0 34 21 52t47 19q32 0 52-20t20-51q0-28-18-49t-52-21q-33 0-51 21t-19 49Z"/></defs><g stroke="currentColor" fill="currentColor" stroke-width="0"><use data-c="F7" xlink:href="#a" transform="scale(1 -1)"/></g></svg>