<svg style="vertical-align:-.566ex" xmlns="http://www.w3.org/2000/svg" width="4.231ex" height="2.942ex" viewBox="0 -1050.3 1870 1300.3" xmlns:xlink="http://www.w3.org/1999/xlink"><defs><path id="b" d="M127 463q-27 0-42 17t-16 44q0 55 48 98t116 43q35 0 44-1 74-12 113-53t40-89q0-52-34-101t-94-71l-3-2q0-1 9-3t29-9 38-21q82-53 82-140 0-79-62-138T238-22q-80 0-138 43T42 130q0 28 18 45t45 18q28 0 46-18t18-45q0-11-3-20t-7-16-11-12-12-8-10-4-8-3l-4-1q51-45 124-45 55 0 83 53 17 33 17 101v20q0 95-64 127-15 6-61 7l-42 1-3 2q-2 3-2 16 0 18 8 18 28 0 58 5 34 5 62 42t28 112v8q0 57-35 79-22 14-47 14-32 0-59-11t-38-23-11-12h3q3-1 8-2t10-5 12-7 10-11 8-15 3-20q0-22-14-39t-45-18Z"/><path id="c" d="M263 249q1 0 52-119t102-238 53-120l255 530q256 535 257 537 7 11 19 11 7 0 12-6t7-12v-6L741 243Q645 43 540-176q-61-127-71-148t-16-24q-4-2-17-2l-12 1L315-96Q206 156 205 156l-34-26q-33-26-34-26l-26 26 152 119Z"/></defs><g stroke="currentColor" fill="currentColor" stroke-width="0"><g><g><g><text data-variant="normal" transform="translate(1020)" font-size="884" font-family="serif">⬚</text></g><use data-c="A0" xlink:href="#a" transform="matrix(1 0 0 -1 1620 0)"/></g><use data-c="33" xlink:href="#b" transform="matrix(.5 0 0 -.5 362 -461.3)"/><use data-c="221A" xlink:href="#c" transform="matrix(1 0 0 -1 0 -140.3)"/><path stroke="none" d="M1020-930.3h850v-60h-850z"/></g></g></svg>