<svg style="vertical-align:-.566ex" xmlns="http://www.w3.org/2000/svg" width="3.219ex" height="2.568ex" viewBox="0 -885.3 1423 1135.3" xmlns:xlink="http://www.w3.org/1999/xlink"><defs><path id="b" d="M95 178q-6 0-14 8t-9 14 31 30 66 50 38 29q2 2 5 2h1q6 0 14-17t54-117q19-43 31-69l85-185q1 0 104 213t206 429 107 221q6 14 20 14 7 0 12-6t7-12v-6L620 293 385-193q-4-7-19-7-9 0-12 3-2 2-98 212l-96 210-16-11q-15-12-31-24t-18-12Z"/><path id="a" d="M132-11q-34 0-34 33v11l13 28q75 158 109 273l8 24h-32q-38 0-54-3t-39-19q-11-7-22-18t-19-21-9-12q-2-1-15-1-19 0-19 10 0 6 19 35t55 62 71 38q7 2 225 2 160 0 164-1 20-7 20-28 0-31-32-42-6-2-69-2h-64l-3-17q-12-72-12-119 0-52 9-93t19-64 10-28q0-17-14-32t-36-15q-11 0-18 3t-16 24-16 60q-1 9-1 44 0 49 9 105t18 92 10 40h-98l-1-4q0-3-19-79t-43-161-31-97q-11-28-43-28Z"/></defs><g stroke="currentColor" fill="currentColor" stroke-width="0"><g><use data-c="1D70B" xlink:href="#a" transform="matrix(1 0 0 -1 853 0)"/><use data-c="221A" xlink:href="#b" transform="matrix(1 0 0 -1 0 -25.3)"/><path stroke="none" d="M853-765.3h570v-60H853z"/></g></g></svg>