<svg style="vertical-align:-.576ex" xmlns="http://www.w3.org/2000/svg" width="2.899ex" height="2.273ex" viewBox="0 -750 1281.5 1004.8" xmlns:xlink="http://www.w3.org/1999/xlink"><defs><path id="a" d="M137 305h-22l-37 15-15 39q0 35 34 62t121 27q73 0 118-32t60-76q5-14 5-31t1-115v-70q0-48 5-66t21-18q15 0 20 16t5 53v36h40v-39q-1-40-3-47-9-30-35-47T400-6t-47 18-24 42v4l-2-3q-2-3-5-6t-8-9-12-11-15-12-18-11-22-8-26-6-31-3q-60 0-108 31t-48 87q0 21 7 40t27 41 48 37 78 28 110 15h14v22q0 34-6 50-22 71-97 71-18 0-34-1t-25-4-8-3q22-15 22-44 0-25-16-39Zm-11-199q0-31 24-55t59-25q38 0 67 23t39 60q2 7 3 66 0 58-1 58-8 0-21-1t-45-9-58-20-46-37-21-60Z"/><path id="b" d="M36 46h14q39 0 47 14v31q0 14 1 31t0 39 0 42v125l-1 23q-3 19-14 25t-45 9H20v23q0 23 2 23l10 1q10 1 28 2t36 2q16 1 35 2t29 3 11 1h3v-69q39 68 97 68h6q45 0 66-22t21-46q0-21-13-36t-38-15q-25 0-37 16t-13 34q0 9 2 16t5 12 3 5q-2 2-23-4-16-8-24-15-47-45-47-179V101q0-12 1-20t0-15v-5q1-2 3-4t5-3 5-3 7-2 7-1 9-1 9 0 10-1 10 0h31V0h-9q-18 3-127 3Q37 3 28 0h-8v46h16Z"/><path id="c" d="M370 305h-21l-36 15-16 38q0 23 15 38 5 5 5 6t-10 2q-26 4-49 4-49 0-80-32-47-47-47-157 0-82 31-129 41-61 110-61 41 0 66 26t36 62q2 8 5 10t16 2h14q6-6 6-9 0-4-4-16t-16-33-29-38-48-31-69-13q-86 0-150 64T34 214q0 104 65 169t151 65 120-27 34-64q0-23-17-37Z"/><path id="e" d="M27 422q53 4 82 56t32 122v15h40V431h135v-46H181V241q1-125 1-141t7-32q14-39 49-39 44 0 54 71 1 8 1 46v35h40v-47q0-77-42-117-27-27-70-27-34 0-59 12t-38 31-19 35-7 32q-1 7-1 148v137H18v37h9Z"/><path id="f" d="M41 46h14q39 0 47 14v62q0 17 1 39t0 42v66q0 35-1 59v23q-3 19-14 25t-45 9H25v23q0 23 2 23l10 1q10 1 28 2t37 2q17 1 36 2t29 3 11 1h3v-40q0-38 1-38t5 5 12 15 19 18 29 19 38 16q20 5 51 5 114-4 127-113 1-7 1-139v-86q0-38 2-45t11-10q21-3 49-3h16V0h-8l-24 1q-23 1-50 1t-38 1Q319 3 310 0h-8v46h16q61 0 61 16 1 2 1 138-1 135-2 143-6 28-20 42t-24 17-26 2q-45 0-79-34-27-27-34-55t-8-83V108q0-30 1-40t3-13 9-6q21-3 49-3h16V0h-8l-23 1q-24 1-51 1t-38 1Q42 3 33 0h-8v46h16Z"/></defs><g stroke="currentColor" fill="currentColor" stroke-width="0"><g><g transform="matrix(.707 0 0 -.707 33 -413)"><use data-c="61" xlink:href="#a"/><use data-c="72" xlink:href="#b" transform="translate(500)"/><use data-c="63" xlink:href="#c" transform="translate(892)"/><use data-c="A0" xlink:href="#d" transform="translate(1336)"/></g><g transform="matrix(.707 0 0 -.707 33 247)"><use data-c="A0" xlink:href="#d"/><use data-c="74" xlink:href="#e" transform="translate(250)"/><use data-c="61" xlink:href="#a" transform="translate(639)"/><use data-c="6E" xlink:href="#f" transform="translate(1139)"/></g></g></g></svg>