<svg style="vertical-align:-.566ex" xmlns="http://www.w3.org/2000/svg" width="2.042ex" height="2.565ex" viewBox="0 -883.9 902.6 1133.9" xmlns:xlink="http://www.w3.org/1999/xlink"><defs><path id="a" d="M39 168q0 57 19 104t49 78 67 52 70 31 63 9h3q45 0 78-22t33-65q0-90-111-118-49-13-134-14-37 0-38-2 0-2-6-35t-7-58q0-47 21-74t63-28 93 19 92 66q9 10 12 10 4 0 13-9t10-14-9-16-30-27-46-31-63-25-76-10q-79 0-122 53T39 168Zm334 185q-6 52-68 52-33 0-61-14t-45-34-29-41-16-36-5-19q0-1 20-1 113 0 158 24t46 69Z"/><path id="b" d="M109 429q-27 0-43 18t-16 44q0 71 53 123t132 52q91 0 152-56t62-145q0-43-20-82t-48-68-80-74q-36-31-100-92l-59-56 76-1q157 0 167 5 7 2 24 89v3h40v-3q-1-3-13-91T421 3V0H50v31q0 7 6 15t30 35q29 32 50 56 9 10 34 37t34 37 29 33 28 34 23 30 21 32 15 29 13 32 7 30 3 33q0 63-34 109t-97 46q-33 0-58-17t-35-33-10-19q0-1 5-1 18 0 37-14t19-46q0-25-16-42t-45-18Z"/></defs><g stroke="currentColor" fill="currentColor" stroke-width="0"><g><use data-c="1D452" xlink:href="#a" transform="scale(1 -1)"/><use data-c="32" xlink:href="#b" transform="matrix(.707 0 0 -.707 499 -413)"/></g></g></svg>