<svg style="vertical-align:-1.018ex" xmlns="http://www.w3.org/2000/svg" width="3.268ex" height="3.167ex" viewBox="0 -950 1444.7 1400" xmlns:xlink="http://www.w3.org/1999/xlink"><defs><path id="a" d="M220 812q0 1-2 7t-4 10-6 11-9 13-14 13-19 12-26 9-33 6-41 3H56v54h1165v-54h-10q-131 0-153-84V-311q18-85 153-85h10v-54H725v54h10q129 0 153 82 1 2 1 3V896H388V292l1-603q16-85 153-85h10v-54H56v54h10q129 0 153 82 1 2 1 3V812Z"/></defs><g stroke="currentColor" fill="currentColor" stroke-width="0"><use data-c="220F" xlink:href="#a" transform="scale(1 -1)"/></g></svg>