<svg style="vertical-align:-.566ex" xmlns="http://www.w3.org/2000/svg" width="1.348ex" height="2.262ex" viewBox="0 -750 596 1000" xmlns:xlink="http://www.w3.org/1999/xlink"><defs><path id="a" d="M409 688q4 6 12 6h21q6-6 6-8 0-7-30-123-7-28-14-59t-12-46l-4-16q0-1 9-1t32-6 48-17q44-21 73-61t29-97-31-109-77-86-97-54-95-21h-4l-24-95q-6-23-13-55-8-32-11-38t-12-7h-6q-20 0-20 7 0 5 22 95l23 92q0 1-8 1-5 0-20 2T161 6t-54 30-45 53-19 82q0 60 33 113t81 86 97 52 88 19q5 0 6 4l30 122q31 119 31 121ZM122 150q0-34 12-59t33-38 36-18 34-8h7l93 377q-4 0-11-1t-29-8-42-16-44-29-41-46q-18-28-33-67-15-46-15-87Zm378 132q0 38-16 65t-40 38-39 15-24 4h-3l-46-187-48-188q0-2 1-2 8 0 32 6t40 14q43 19 74 53t44 70 19 64 6 48Z"/></defs><g stroke="currentColor" fill="currentColor" stroke-width="0"><use data-c="1D719" xlink:href="#a" transform="scale(1 -1)"/></g></svg>