<svg style="vertical-align:-.566ex" xmlns="http://www.w3.org/2000/svg" width="1.448ex" height="2.262ex" viewBox="0 -750 640 1000" xmlns:xlink="http://www.w3.org/1999/xlink"><defs><path id="a" d="M34 156q0 114 86 200t189 86q70 0 112-40t57-98q6-29 7-67v-29q49 74 75 166 4 14 6 16t16 3q21 0 21-8 0-9-9-39t-36-85-61-100l-11-14 1-24q2-56 8-76t19-21q14 2 26 11t17 23q2 7 5 8t15 2q20 0 20-8 0-6-6-19-12-24-35-38t-44-15h-7q-67 0-91 72l-3 7-11-8q-10-8-30-20t-45-23-58-20-64-9q-79 0-124 50T34 156ZM208 26q49 0 98 21t73 43l24 22q-2 143-7 178-14 115-92 115-69 0-121-73-27-40-44-108t-18-104q0-49 25-71t62-23Z"/></defs><g stroke="currentColor" fill="currentColor" stroke-width="0"><use data-c="1D6FC" xlink:href="#a" transform="scale(1 -1)"/></g></svg>