<svg style="vertical-align:-.566ex" xmlns="http://www.w3.org/2000/svg" width="1.303ex" height="2.262ex" viewBox="0 -750 576 1000" xmlns:xlink="http://www.w3.org/1999/xlink"><defs><path id="a" d="M83-11q-13 0-21 7T51 8t-2 9q0 13 47 200t51 197q13 28 46 28 12-1 20-7t10-13 2-10q0-11-17-75l-16-67q1-1 16 7t27 15q17 12 71 57t90 63 71 19q22 0 33-11t12-29q0-25-18-44t-45-20q-19 0-31 11t-13 30q0 2 2 12l-10-5q-29-15-82-60l-62-49-13-9h5q17 0 55-6t66-21q56-27 56-80 0-10-5-36t-6-47q0-41 26-41 47 0 76 111 3 12 6 14t16 2q19 0 19-9 0-23-27-80T457-7q-10-3-26-3-45 0-71 27t-27 73q0 18 3 32t3 24q0 24-19 40t-49 23-49 9-37 3h-5l-25-99Q129 22 126 16q-13-27-43-27Z"/></defs><g stroke="currentColor" fill="currentColor" stroke-width="0"><use data-c="1D705" xlink:href="#a" transform="scale(1 -1)"/></g></svg>