<svg style="vertical-align:-.566ex" xmlns="http://www.w3.org/2000/svg" width="1.473ex" height="2.262ex" viewBox="0 -750 651 1000" xmlns:xlink="http://www.w3.org/1999/xlink"><defs><path id="a" d="M161 441q41 0 65-24t24-59q0-20-32-106t-31-125q3-42 27-66 21-18 43-24 18-8 31-8h1l82 331q84 331 85 332 3 2 16 2 20 0 20-7 0-9-81-331-82-328-82-329t6-1q86 0 163 88t78 164q0 24-8 41t-18 24-18 18-8 23q0 21 17 40t42 19q19 0 35-18t16-59q0-29-11-78t-18-68q-32-95-113-163T329-11h-10l-23-93q-24-94-24-95-2-6-20-6h-13q-6 6-6 8 0 5 23 95t23 93q-7 1-14 1-159 22-159 147 0 35 33 125t34 115v14q0 3-4 7t-11 4h-4q-23 0-42-19t-30-41-17-42-8-22q-2-2-16-2H27q-6 6-6 9 0 12 13 46t48 71 79 37Z"/></defs><g stroke="currentColor" fill="currentColor" stroke-width="0"><use data-c="1D713" xlink:href="#a" transform="scale(1 -1)"/></g></svg>