<svg style="vertical-align:-.566ex" xmlns="http://www.w3.org/2000/svg" width="1.097ex" height="2.262ex" viewBox="0 -750 485 1000" xmlns:xlink="http://www.w3.org/1999/xlink"><defs><path id="a" d="M201-11q-75 0-121 49T34 156q0 65 30 123t82 101q76 61 155 61 32 0 40-1 13-3 26-7t35-16 36-30 26-49 12-70q0-107-86-193T201-11Zm-80 131q0-50 26-72t59-22q44 0 83 32t62 84q9 21 23 74t14 92q0 44-18 67-24 30-64 30-63 0-111-58-37-44-55-117t-19-110Z"/></defs><g stroke="currentColor" fill="currentColor" stroke-width="0"><use data-c="1D45C" xlink:href="#a" transform="scale(1 -1)"/></g></svg>