<svg style="vertical-align:-.566ex" xmlns="http://www.w3.org/2000/svg" width=".801ex" height="2.262ex" viewBox="0 -750 354 1000" xmlns:xlink="http://www.w3.org/1999/xlink"><defs><path id="a" d="M139-10q-28 0-47 10T64 25 52 52t-4 22q0 15 7 35t30 90 50 176l2 9q2 10 3 13t5 12 6 13 9 9 13 8 17 3q12 0 23-7t12-25q0-6-11-52t-33-120-44-131q-11-33-11-53V39q0-4 4-8t12-4h5q59 0 108 51 17 20 26 36t9 24 5 11 18 4h11q3 0 5-1t3-3 0-6q0-37-56-95T145-10h-6Z"/></defs><g stroke="currentColor" fill="currentColor" stroke-width="0"><use data-c="1D704" xlink:href="#a" transform="scale(1 -1)"/></g></svg>