<svg style="vertical-align:-.566ex" xmlns="http://www.w3.org/2000/svg" width="1.124ex" height="2.262ex" viewBox="0 -750 497 1000" xmlns:xlink="http://www.w3.org/1999/xlink"><defs><path id="a" d="M21 287q1 3 2 8t5 22 10 31 15 33 20 30 26 22 33 9q24 0 43-7t30-18 16-22 8-19l2-7q0-2 1-2l11 11q61 64 139 64 54 0 87-27t34-79v-10q0-24-64-273-58-235-62-242-13-27-45-27-13 0-22 8t-11 22q0 9 59 243l62 250q3 15 3 38 0 59-44 59h-5q-86 0-145-101l-7-12-33-134Q156 26 151 16q-13-27-43-27-13 0-21 6T76 7t-2 10q0 13 40 172t40 177q0 39-26 39-21 0-36-28t-24-61-11-36q-2-2-16-2H27q-6 6-6 9Z"/></defs><g stroke="currentColor" fill="currentColor" stroke-width="0"><use data-c="1D702" xlink:href="#a" transform="scale(1 -1)"/></g></svg>