<svg style="vertical-align:-.566ex" xmlns="http://www.w3.org/2000/svg" width="1.29ex" height="2.262ex" viewBox="0 -750 570 1000" xmlns:xlink="http://www.w3.org/1999/xlink"><defs><path id="a" d="M132-11q-34 0-34 33v11l13 28q75 158 109 273l8 24h-32q-38 0-54-3t-39-19q-11-7-22-18t-19-21-9-12q-2-1-15-1-19 0-19 10 0 6 19 35t55 62 71 38q7 2 225 2 160 0 164-1 20-7 20-28 0-31-32-42-6-2-69-2h-64l-3-17q-12-72-12-119 0-52 9-93t19-64 10-28q0-17-14-32t-36-15q-11 0-18 3t-16 24-16 60q-1 9-1 44 0 49 9 105t18 92 10 40h-98l-1-4q0-3-19-79t-43-161-31-97q-11-28-43-28Z"/></defs><g stroke="currentColor" fill="currentColor" stroke-width="0"><use data-c="1D70B" xlink:href="#a" transform="scale(1 -1)"/></g></svg>