<svg style="vertical-align:-.566ex" xmlns="http://www.w3.org/2000/svg" width="1.416ex" height="2.262ex" viewBox="0 -750 626 1000" xmlns:xlink="http://www.w3.org/1999/xlink"><defs><path id="a" d="M576-125q0-22-29-50t-60-29h-11q-82 0-113 47-29 43-70 183l-9 33q-1-1-36-40t-78-85-78-85-39-40q-4-3-10-3-7 0-12 5t-6 12 13 23T151-30l121 132-7 29q-76 274-130 274-31 0-48-47-1-7-19-7-20 0-20 10 0 8 8 25t33 37 59 19q76 0 110-42 18-25 39-80t33-98l11-42q3 0 114 123t118 126q6 2 9 2 18 0 18-17 0-7-13-22T477 270Q356 138 353 134l9-32q30-112 66-191t62-79q14 0 27 12t19 30q3 10 7 11t14 1 14-1q5-3 5-10Z"/></defs><g stroke="currentColor" fill="currentColor" stroke-width="0"><use data-c="1D712" xlink:href="#a" transform="scale(1 -1)"/></g></svg>