<svg style="vertical-align:-.566ex" xmlns="http://www.w3.org/2000/svg" width="1.57ex" height="2.262ex" viewBox="0 -750 694 1000" xmlns:xlink="http://www.w3.org/1999/xlink"><defs><path id="a" d="M320 708q6 8 20 8h15q12 0 17-8 2-2 51-161t100-321 52-164q6-10 16-12t43-4h27V0h-8q-9 3-121 3-121 0-142-3h-11v46h13q72 0 72 19-1 5-74 240t-74 234l-70-223Q177 95 177 84q0-12 21-25t50-13h5V0h-8q-15 3-115 3-83 0-92-3h-6v46h13q67 5 82 45 1 1 97 308t96 309Z"/></defs><g stroke="currentColor" fill="currentColor" stroke-width="0"><use data-c="39B" xlink:href="#a" transform="scale(1 -1)"/></g></svg>