<svg style="vertical-align:-.566ex" xmlns="http://www.w3.org/2000/svg" width="1.633ex" height="2.262ex" viewBox="0 -750 722 1000" xmlns:xlink="http://www.w3.org/1999/xlink"><defs><path id="a" d="M666 247q-2-3-14-121T638 4V0H95Q59 0 57 5v1q-3 6 0 11l16 19 48 54q32 36 61 69l123 140L56 644l-1 14q0 19 5 23 3 2 291 2h287v-4q2-5 14-115t14-117v-4h-40v4q-8 58-22 96t-45 62q-30 21-81 26t-145 6H189l104-143q21-29 52-72 55-76 55-82 0-2-1-3L154 57q253 0 274 1 48 2 80 10t43 15 24 20q20 22 33 59t16 63l2 26h40v-4Z"/></defs><g stroke="currentColor" fill="currentColor" stroke-width="0"><use data-c="3A3" xlink:href="#a" transform="scale(1 -1)"/></g></svg>