<svg style="vertical-align:-.566ex" xmlns="http://www.w3.org/2000/svg" width="1.17ex" height="2.262ex" viewBox="0 -750 517 1000" xmlns:xlink="http://www.w3.org/1999/xlink"><defs><path id="a" d="M205-174q-69 0-103 21T67-76q0 51 24 161t36 149q16 55 55 107 70 86 159 100h8q6 0 10 1 73 0 112-48t39-118q0-107-79-196T253-10q-27 0-49 8t-35 21-23 25-14 20l-4 9q0-1-4-20t-8-48-4-49q0-24 5-34t33-17 86-7q91 0 120-9t30-43q0-12-2-24-3-12-6-14t-17-2h-13q-6 6-6 15 0 10-27 10-21 0-51-2t-59-3Zm219 496q0 37-17 60t-50 23q-35 0-70-29t-56-76q-10-24-27-83-16-65-16-101 0-48 22-69t49-21q38 0 75 36 33 30 55 96t29 108 6 56Z"/></defs><g stroke="currentColor" fill="currentColor" stroke-width="0"><use data-c="1D71A" xlink:href="#a" transform="scale(1 -1)"/></g></svg>