<svg style="vertical-align:-.72ex" xmlns="http://www.w3.org/2000/svg" width="3.748ex" height="2.417ex" viewBox="0 -750 1656.5 1068.2" xmlns:xlink="http://www.w3.org/1999/xlink"><defs><path id="a" d="M287 628q0 7-57 9-24 0-31 1t-7 10q0 1 2 11 6 20 9 22t194 2q190-1 203-3 64-11 107-49t44-101q0-77-66-141-69-68-178-86-7-1-105-2h-95l-30-119Q247 66 247 59q0-4 1-5t7-4 17-2 33-2h31q6-9 6-11 0-16-7-30-5-5-16-5-3 0-37 1T182 2H87Q54 2 51 1 33 1 33 11q0 2 3 14 4 16 8 18t23 3q27 0 60 3 14 3 19 12 3 4 72 278t69 289Zm358-74q0 13-2 21t-9 22-25 22-49 16q-7 1-80 2h-35q-18 0-29-1t-12 0q-13-1-18-9-2-6-19-77t-35-138-18-68q0-2 81-2h35q112 0 160 50 27 27 41 79t14 83Z"/></defs><g stroke="currentColor" fill="currentColor" stroke-width="0"><g><g><text data-variant="normal" transform="matrix(.707 0 0 .707 33 176.7)" font-size="884" font-family="serif">⬚</text></g></g><g><use data-c="1D443" xlink:href="#a" transform="matrix(1 0 0 -1 507.3 0)"/><g><text data-variant="normal" transform="matrix(.707 0 0 .707 1182.3 176.7)" font-size="884" font-family="serif">⬚</text></g></g></g></svg>