<svg style="vertical-align:-.566ex" xmlns="http://www.w3.org/2000/svg" width="1.76ex" height="2.262ex" viewBox="0 -750 778 1000" xmlns:xlink="http://www.w3.org/1999/xlink"><defs><path id="a" d="M630 29q0-20-21-20-5 0-22 16t-94 93L389 222 284 117Q178 13 175 11q-4-2-7-2-8 0-14 6t-7 14q0 7 14 22t94 95l104 104-104 104q-81 81-94 95t-14 22q0 9 6 14t15 5q5 0 7-1 3-2 109-106l105-105 104 104q77 77 94 93t22 16q21 0 21-20 0-7-10-18t-98-98L418 250l104-105q84-84 96-97t12-19Z"/></defs><g stroke="currentColor" fill="currentColor" stroke-width="0"><use data-c="D7" xlink:href="#a" transform="scale(1 -1)"/></g></svg>