<svg style="vertical-align:-.566ex" xmlns="http://www.w3.org/2000/svg" width="1.176ex" height="2.262ex" viewBox="0 -750 520 1000" xmlns:xlink="http://www.w3.org/1999/xlink"><defs><path id="a" d="M366 683q1 0 72 5t73 6q12 0 12-8 0-7-73-302T375 83t-1-15q0-42 28-42 9 1 20 9 21 20 41 96 6 20 10 21 2 1 10 1h8q15 0 15-8 0-5-3-16-13-50-30-81T445 8 417-8q-8-2-24-2-34 0-57 15t-30 31l-6 15q-1 1-4-1l-4-4q-59-56-120-56-55 0-97 40T33 157q0 48 20 98t48 86q47 57 94 79t85 22q56 0 84-42 5-6 5-4 1 4 27 109t28 111q0 13-7 16t-39 5h-21q-6 6-6 8t2 19q5 19 13 19Zm-14-357q-23 79-75 79-35 0-67-31t-50-81q-29-79-41-164v-11q0-8-1-12 0-45 18-62t43-18q54 0 111 72l8 11 54 217Z"/></defs><g stroke="currentColor" fill="currentColor" stroke-width="0"><use data-c="1D451" xlink:href="#a" transform="scale(1 -1)"/></g></svg>