<svg style="vertical-align:-.566ex" xmlns="http://www.w3.org/2000/svg" width="1.061ex" height="2.262ex" viewBox="0 -750 469 1000" xmlns:xlink="http://www.w3.org/1999/xlink"><defs><path id="a" d="M131 289q0 32 16 65t56 61 97 27q62 0 90-27t29-60q0-32-17-47t-38-16q-13 0-24 8t-12 26q0 16 9 28t17 18 13 6q1 0 1 1 0 3-7 9t-25 11-39 6q-48 0-70-26t-23-53q0-25 19-35t55-17 52-15q66-29 66-96 0-28-11-56t-33-56-63-44-94-17q-77 0-109 29T53 87q0 39 21 56t44 17q15 0 28-9t14-31q0-26-18-44t-31-18q-2-1-3-1t-1-2q1-3 8-8t31-13 55-7q36 0 62 11t38 28 17 31 5 25q0 28-21 42t-48 17-59 15-47 35q-17 25-17 58Z"/></defs><g stroke="currentColor" fill="currentColor" stroke-width="0"><use data-c="1D460" xlink:href="#a" transform="scale(1 -1)"/></g></svg>