<svg style="vertical-align:-.566ex" xmlns="http://www.w3.org/2000/svg" width="1.138ex" height="2.262ex" viewBox="0 -750 503 1000" xmlns:xlink="http://www.w3.org/1999/xlink"><defs><path id="a" d="M23 287q1 3 2 8t5 22 10 31 15 33 20 30 26 22 33 9q75 0 96-64l10 9q62 55 118 55 65 0 102-47t37-114q0-108-76-199T249-10q-22 0-39 6-11 5-23 15t-19 17l-7 8q-1-1-22-87t-21-87q0-6 8-7t37-3h25q6-7 6-9t-3-18q-3-12-6-15t-13-4h-11q-9 0-34 1t-62 1q-70 0-89-2h-8q-7 7-7 11 2 27 13 35h20q34 1 39 12 3 6 61 239t61 247q1 5 1 14 0 41-25 41-22 0-37-28t-23-61-12-36q-2-2-16-2H29q-6 6-6 9Zm155-185q22-76 74-76 30 0 58 23t46 58q18 34 36 108t19 110v6q0 74-61 74-11 0-22-3t-22-9-20-13-17-15-15-15-11-14-8-10l-3-4q0-1-3-14t-11-44-14-52q-26-106-26-110Z"/></defs><g stroke="currentColor" fill="currentColor" stroke-width="0"><use data-c="1D45D" xlink:href="#a" transform="scale(1 -1)"/></g></svg>