<svg style="vertical-align:-.566ex" xmlns="http://www.w3.org/2000/svg" width="1.097ex" height="2.262ex" viewBox="0 -750 485 1000" xmlns:xlink="http://www.w3.org/1999/xlink"><defs><path id="a" d="M173 380q0 25-19 25-24 0-50-29t-43-89q-1-1-2-3t-1-3-2-2-3-1-4 0-8 0H27q-6 6-6 9 0 7 8 29t24 52 44 51 63 22q42 0 65-24t24-56q0-17-3-26 0-6-15-44t-31-89-18-89q0-27 5-44 13-43 63-43 37 0 69 34t50 79 29 83 11 55q0 23-8 40t-18 26-18 18-8 22q0 22 19 41t41 19q19 0 34-18t16-58q0-27-12-83t-37-125-71-119-106-51q-64 0-102 33-37 32-37 95 0 31 8 64t41 117q22 64 22 82Z"/></defs><g stroke="currentColor" fill="currentColor" stroke-width="0"><use data-c="1D463" xlink:href="#a" transform="scale(1 -1)"/></g></svg>