<svg style="vertical-align:-.566ex" xmlns="http://www.w3.org/2000/svg" width="2.371ex" height="2.262ex" viewBox="0 -750 1048 1000" xmlns:xlink="http://www.w3.org/1999/xlink"><defs><path id="a" d="M436 683q14 0 50-1t67-2q51 0 85 1t39 1q18 0 18-8 0-4-3-15-5-18-9-20t-22-2q-25-1-40-5t-21-8-3-9q0-12 16-238t16-239l2 3q2 3 6 10t12 19 17 30 24 41 30 54 39 67q104 184 118 210t15 32q0 15-19 24t-42 9q-14 0-14 10 0 3 2 13 4 16 6 19t14 3h56q25 0 54-1 66 0 85 2 14 0 14-11 0-6-3-17t-7-15-10-3q-22 0-40-6t-30-14-19-17-12-16l-4-6-169-296Q586-14 585-15q-6-7-24-7-15 0-19 5-3 3-19 246t-17 251l-12-18q-22-37-128-223Q222-13 220-15t-5-4q-5-3-18-3-19 0-21 7 0 3-22 319t-23 318q-2 9-10 11t-39 4H58q-7 7-7 11 1 23 13 35h12q42-3 100-3 125 0 137 3h10q6-6 6-9t-2-18q-5-15-9-19h-21q-61-3-65-17 30-460 34-484l235 414-2 37q-3 42-10 45-6 4-42 5-19 0-25 2t-6 9q0 2 2 12 1 4 2 9t1 7 3 4 4 2 8 1Z"/></defs><g stroke="currentColor" fill="currentColor" stroke-width="0"><use data-c="1D44A" xlink:href="#a" transform="scale(1 -1)"/></g></svg>